<?xml version="1.0" standalone="no"?>
<!DOCTYPE svg PUBLIC "-//W3C//DTD SVG 20010904//EN"
 "http://www.w3.org/TR/2001/REC-SVG-20010904/DTD/svg10.dtd">
<svg version="1.0" xmlns="http://www.w3.org/2000/svg"
 width="236.000000pt" height="236.000000pt" viewBox="0 0 236.000000 236.000000"
 preserveAspectRatio="xMidYMid meet">

<g transform="translate(0.000000,236.000000) scale(0.100000,-0.100000)"
fill="#000000" stroke="none">
<path d="M0 1180 l0 -1180 1180 0 1180 0 0 1180 0 1180 -1180 0 -1180 0 0
-1180z m1299 841 c10 -6 5 -11 -20 -17 -19 -4 -43 -8 -53 -9 -32 -3 -69 -54
-62 -87 8 -40 -10 -35 -24 6 -9 28 -8 40 4 65 9 16 24 35 33 40 22 13 103 14
122 2z m-69 -46 c-7 -9 -15 -13 -17 -11 -7 7 7 26 19 26 6 0 6 -6 -2 -15z m20
-131 c62 -40 100 -75 106 -100 8 -31 -13 -110 -34 -126 -14 -11 -15 -10 -7 7
29 69 14 113 -64 190 -46 44 -51 53 -50 90 l2 40 6 -40 c5 -31 13 -44 41 -61z
m-170 47 c0 -25 -4 -30 -37 -36 -119 -22 -276 -116 -376 -226 -252 -274 -249
-703 5 -980 75 -81 202 -158 323 -195 46 -14 91 -18 190 -18 114 0 140 3 210
27 44 14 109 43 145 64 80 47 204 169 248 245 144 246 129 578 -38 803 -44 59
-116 128 -181 172 -53 37 -205 108 -260 123 -29 8 -39 16 -39 30 0 26 20 25
106 -1 153 -47 286 -135 385 -252 72 -85 121 -179 153 -291 34 -117 36 -284 5
-396 -24 -87 -30 -100 -39 -76 -4 13 -13 3 -34 -41 -38 -77 -102 -167 -165
-227 -27 -27 -48 -53 -46 -57 3 -4 -3 -13 -13 -20 -15 -13 -16 -12 -3 4 20 25
5 21 -45 -14 -56 -38 -135 -73 -216 -95 -86 -24 -260 -24 -348 0 -210 57 -384
200 -485 401 -17 35 -35 62 -38 59 -12 -12 -47 92 -58 173 -48 365 204 734
571 834 84 23 80 24 80 -10z m142 -148 c16 -36 17 -49 8 -82 -6 -22 -15 -43
-20 -46 -16 -10 -11 -93 6 -120 22 -34 31 -31 26 9 -2 19 0 42 6 52 8 15 11
12 17 -17 11 -53 112 -199 137 -199 4 0 -1 15 -12 33 -11 17 -20 42 -20 55 0
20 25 82 34 82 2 0 1 -22 -2 -49 -4 -47 -3 -50 47 -105 51 -56 63 -92 42 -125
-7 -11 -18 -7 -52 22 -23 20 -61 44 -84 53 -38 14 -43 20 -48 56 -7 49 -29 75
-78 88 -84 23 -169 -25 -169 -94 0 -30 -4 -35 -43 -50 -24 -9 -63 -33 -86 -53
-48 -40 -61 -35 -61 24 0 23 11 45 40 77 45 53 56 96 41 152 -14 52 -14 59 4
44 8 -7 12 -16 9 -21 -2 -5 2 -22 11 -38 19 -38 19 -84 0 -121 -9 -17 -11 -30
-6 -30 20 0 53 38 61 70 7 33 8 33 9 7 1 -35 21 -26 21 9 0 37 -16 62 -84 133
-48 51 -53 58 -21 34 51 -40 87 -79 114 -123 23 -38 24 -37 21 30 -2 60 11 90
59 142 49 51 57 82 35 133 -15 37 -15 38 2 25 9 -8 26 -34 36 -57z m-273 13
c-95 -41 -127 -62 -213 -145 -38 -36 -60 -52 -48 -36 48 70 157 153 252 192
86 35 94 27 9 -11z m511 -6 c22 -11 40 -23 40 -25 0 -5 -79 32 -89 41 -11 10
14 2 49 -16z m-278 -27 c-4 -24 -81 -113 -97 -113 -11 0 19 46 51 78 19 18 34
42 34 53 0 11 4 18 9 15 4 -3 6 -18 3 -33z m-273 -6 c-2 -1 -13 -9 -24 -17
-19 -14 -19 -14 -6 3 7 9 18 17 24 17 6 0 8 -1 6 -3z m151 -13 c0 -8 -5 -12
-10 -9 -6 4 -8 11 -5 16 9 14 15 11 15 -7z m-280 -77 c0 -2 -10 -12 -22 -23
l-23 -19 19 23 c18 21 26 27 26 19z m656 -54 c-16 -31 -76 -92 -76 -77 0 9 78
104 86 104 2 0 -2 -12 -10 -27z m-621 -32 c7 -12 -12 -24 -25 -16 -11 7 -4 25
10 25 5 0 11 -4 15 -9z m780 -21 c-5 -8 -11 -8 -17 -2 -6 6 -7 16 -3 22 5 8
11 8 17 2 6 -6 7 -16 3 -22z m-45 -15 c-7 -9 -15 -13 -19 -10 -3 3 1 10 9 15
21 14 24 12 10 -5z m-710 -5 c0 -5 -2 -10 -4 -10 -3 0 -8 5 -11 10 -3 6 -1 10
4 10 6 0 11 -4 11 -10z m-56 -33 c11 -8 17 -19 15 -26 -3 -8 -13 -3 -28 13
-26 28 -17 35 13 13z m836 5 c0 -11 -41 -34 -48 -28 -3 4 3 13 14 21 21 16 34
19 34 7z m-755 -75 c-27 -27 -35 -43 -36 -73 0 -35 -1 -37 -11 -17 -16 32 -1
73 40 111 47 45 54 26 7 -21z m668 5 c22 -24 34 -96 18 -106 -7 -5 -11 4 -11
24 0 22 -11 43 -40 74 -22 24 -40 46 -40 50 0 11 53 -20 73 -42z m-281 1 c11
-10 17 -28 17 -47 -2 -27 -2 -28 -6 -6 -8 40 -22 50 -71 50 -52 0 -82 -21 -82
-57 0 -12 -5 -23 -11 -23 -14 0 -5 66 12 86 17 20 117 19 141 -3z m409 -3
c-21 -18 -51 -27 -51 -15 0 6 53 34 65 34 6 0 -1 -9 -14 -19z m-916 -3 c10 -8
14 -17 9 -20 -5 -3 -21 3 -34 14 -29 22 -6 28 25 6z m-85 -42 c0 -8 -7 -15
-15 -15 -16 0 -20 12 -8 23 11 12 23 8 23 -8z m1080 0 c0 -8 -7 -15 -15 -15
-8 0 -15 7 -15 15 0 8 7 15 15 15 8 0 15 -7 15 -15z m-532 -12 c-10 -2 -28 -2
-40 0 -13 2 -5 4 17 4 22 1 32 -1 23 -4z m-498 -13 c8 -5 11 -12 8 -15 -4 -4
-17 0 -30 9 -24 17 -5 23 22 6z m972 -6 c-13 -9 -26 -13 -30 -9 -8 8 17 25 38
25 9 0 6 -6 -8 -16z m-360 -49 c53 -19 131 -83 154 -127 20 -38 12 -47 -10
-13 -9 14 -21 23 -25 20 -5 -2 -14 2 -21 10 -7 8 -16 13 -20 10 -5 -3 -12 0
-16 6 -5 8 -3 9 7 4 8 -5 11 -4 6 1 -5 5 -10 7 -12 4 -2 -3 -16 6 -31 20 l-28
25 24 -35 23 -35 -31 29 c-31 29 -45 25 -19 -4 6 -8 -1 -4 -17 10 l-30 25 19
-30 c18 -30 18 -30 -2 -12 -25 22 -40 22 -22 0 13 -15 12 -15 -11 -3 -23 12
-24 12 -12 -3 12 -14 10 -17 -13 -23 -14 -3 -24 -9 -21 -11 3 -3 -8 -16 -23
-29 -21 -17 -42 -24 -77 -26 l-49 -1 45 -7 c45 -7 45 -7 -15 -8 -62 0 -182 24
-135 28 22 1 20 3 -14 16 -50 18 -60 28 -21 19 l30 -6 -28 16 c-27 16 -27 16
-10 40 26 37 101 82 163 100 66 18 174 14 242 -10z m-692 -20 c0 -8 -7 -15
-15 -15 -8 0 -15 7 -15 15 0 8 7 15 15 15 8 0 15 -7 15 -15z m65 -6 c16 -16
-20 -10 -41 7 -18 14 -18 15 6 8 14 -3 29 -10 35 -15z m1015 1 c-16 -11 -40
-13 -40 -5 0 8 44 24 50 18 2 -2 -2 -8 -10 -13z m60 5 c0 -8 -7 -15 -15 -15
-8 0 -15 7 -15 15 0 8 7 15 15 15 8 0 15 -7 15 -15z m-993 -42 c-3 -10 -5 -4
-5 12 0 17 2 24 5 18 2 -7 2 -21 0 -30z m820 5 c-3 -7 -5 -2 -5 12 0 14 2 19
5 13 2 -7 2 -19 0 -25z m-920 -44 c-3 -3 -12 -4 -19 -1 -8 3 -5 6 6 6 11 1 17
-2 13 -5z m-57 -59 c0 -8 -7 -15 -15 -15 -16 0 -20 12 -8 23 11 12 23 8 23 -8z
m204 0 c-8 -20 57 -49 158 -69 175 -36 477 -9 553 49 17 14 18 17 5 25 -11 7
-3 10 27 10 23 0 48 -3 57 -6 27 -10 18 -24 -17 -24 -19 0 -60 -14 -92 -32
-77 -42 -146 -57 -285 -64 -176 -9 -366 28 -409 79 -8 11 -28 17 -52 17 -22 0
-39 4 -39 9 0 13 19 19 62 20 29 1 36 -2 32 -14z m951 4 c10 -15 -1 -23 -20
-15 -9 3 -13 10 -10 16 8 13 22 13 30 -1z m-1145 -104 c0 -8 -7 -15 -15 -15
-8 0 -15 7 -15 15 0 8 7 15 15 15 8 0 15 -7 15 -15z m1070 5 c0 -5 -5 -10 -11
-10 -5 0 -7 5 -4 10 3 6 8 10 11 10 2 0 4 -4 4 -10z m68 -7 c-4 -22 -22 -20
-26 1 -2 10 3 16 13 16 10 0 15 -7 13 -17z m-783 -40 c55 -13 145 -26 200 -30
55 -3 94 -8 86 -11 -8 -3 -37 -27 -65 -54 -43 -42 -55 -49 -81 -45 -40 7 -127
38 -142 51 -6 6 -23 20 -38 31 -14 11 -35 29 -45 39 -32 32 -25 -4 9 -51 63
-87 142 -125 266 -127 111 -1 181 23 253 88 47 43 53 46 33 18 -33 -48 -96
-90 -159 -108 -77 -23 -210 -15 -277 15 -80 36 -151 117 -169 195 -6 25 -5 28
11 21 10 -5 63 -19 118 -32z m-294 -45 c9 -17 8 -24 -5 -34 -35 -25 -82 10
-56 41 18 22 47 18 61 -7z m1047 -9 c4 -31 -19 -44 -49 -29 -22 12 -24 31 -7
48 21 21 53 10 56 -19z m-988 -88 c0 -5 -7 -12 -16 -15 -14 -5 -15 -4 -4 9 14
17 20 19 20 6z m885 -9 c-3 -3 -11 0 -18 7 -9 10 -8 11 6 5 10 -3 15 -9 12
-12z m-701 -28 c3 -9 -13 -59 -36 -111 -40 -88 -60 -115 -75 -100 -7 8 87 227
97 227 4 0 11 -7 14 -16z m571 -94 c25 -56 45 -106 45 -110 0 -4 -7 -11 -16
-14 -13 -5 -15 -2 -11 14 3 11 2 18 -3 15 -7 -4 -20 22 -67 135 -14 32 -14 33
3 20 16 -14 16 -13 6 7 -12 21 -17 51 -7 42 2 -3 25 -52 50 -109z m-767 38
c-6 -18 -28 -21 -28 -4 0 9 7 16 16 16 9 0 14 -5 12 -12z m922 -3 c0 -8 -7
-15 -15 -15 -8 0 -15 7 -15 15 0 8 7 15 15 15 8 0 15 -7 15 -15z m-448 -33
c100 2 113 1 93 -10 -18 -9 -27 -24 -31 -52 -9 -54 -39 -56 -49 -2 l-8 37 -9
-42 c-8 -36 -13 -43 -32 -43 -20 0 -25 7 -31 43 -6 35 -8 38 -15 22 -8 -19
-11 -18 -14 4 -3 26 -14 17 -27 -21 l-14 -43 -3 48 c-3 41 -7 49 -29 58 -36
13 -50 6 -58 -30 -4 -17 -11 -31 -17 -31 -5 0 -7 6 -4 13 2 6 10 28 17 48 l11
36 52 -19 c42 -17 70 -19 168 -16z m518 -66 c0 -2 -8 -10 -17 -17 -16 -13 -17
-12 -4 4 13 16 21 21 21 13z m-765 -56 c3 -5 0 -18 -6 -29 -10 -16 -15 -17
-26 -6 -7 8 -10 21 -7 29 7 18 30 21 39 6z m471 -16 c2 -24 1 -25 -16 -7 -12
12 -14 20 -6 25 18 12 21 10 22 -18z m-386 -15 c0 -6 -10 -13 -22 -17 -21 -5
-21 -6 -2 -13 16 -6 16 -8 2 -8 -21 -1 -30 12 -22 33 7 18 44 22 44 5z m313
-30 c-26 -11 -33 -10 -33 1 0 6 8 10 18 11 10 0 12 3 5 6 -7 2 -13 9 -13 15 0
6 9 3 21 -8 19 -17 19 -19 2 -25z m-241 13 c-6 -2 -12 -11 -13 -20 0 -14 -2
-13 -9 3 -13 31 -12 34 12 27 12 -3 17 -7 10 -10z m164 -10 c1 -16 -3 -21 -12
-18 -8 3 -14 0 -15 -7 0 -7 -4 -1 -10 11 -5 13 -6 28 -3 33 11 18 39 4 40 -19z
m-97 -2 c5 19 8 21 13 9 3 -9 3 -22 -2 -29 -12 -20 -40 -4 -39 22 0 23 0 23
11 -2 l11 -25 6 25z"/>
<path d="M1155 1230 c-21 -33 29 -67 54 -36 12 15 5 46 -11 46 -6 0 -5 -6 2
-15 10 -12 9 -16 -3 -21 -24 -9 -41 5 -26 22 7 9 8 14 1 14 -6 0 -14 -5 -17
-10z"/>
<path d="M1420 1182 c6 -13 14 -21 18 -18 3 4 -2 14 -12 24 -18 16 -18 16 -6
-6z"/>
<path d="M768 1113 c6 -2 18 -2 25 0 6 3 1 5 -13 5 -14 0 -19 -2 -12 -5z"/>
<path d="M1578 1113 c6 -2 18 -2 25 0 6 3 1 5 -13 5 -14 0 -19 -2 -12 -5z"/>
<path d="M940 570 c0 -5 5 -10 10 -10 6 0 10 5 10 10 0 6 -4 10 -10 10 -5 0
-10 -4 -10 -10z"/>
<path d="M1258 523 c7 -3 16 -2 19 1 4 3 -2 6 -13 5 -11 0 -14 -3 -6 -6z"/>
</g>
</svg>
